<svg width="19" height="18" viewBox="0 0 19 18" fill="none" xmlns="http://www.w3.org/2000/svg">
<path d="M4.48334 2.25942C3.33891 2.38732 2.42286 3.29057 2.29045 4.42268C1.93476 7.46383 1.93476 10.5361 2.29045 13.5772C2.42286 14.7093 3.33891 15.6126 4.48334 15.7405C7.46017 16.0732 10.5398 16.0732 13.5166 15.7405C14.6611 15.6126 15.5771 14.7093 15.7095 13.5772C15.9651 11.3921 16.037 9.19086 15.9253 6.99668C15.9224 6.94002 15.9436 6.88475 15.9837 6.84463L17.0225 5.80585C17.1427 5.68562 17.3482 5.7608 17.3609 5.93036C17.557 8.53528 17.5031 11.1543 17.1994 13.7515C16.9845 15.5884 15.5096 17.0271 13.6832 17.2312C10.5957 17.5763 7.40429 17.5763 4.31673 17.2312C2.49035 17.0271 1.01545 15.5884 0.800605 13.7515C0.431374 10.5945 0.431374 7.40535 0.800605 4.24843C1.01545 2.41146 2.49035 0.972822 4.31673 0.768697C7.40429 0.423618 10.5957 0.423618 13.6832 0.768697C14.3265 0.84059 14.9261 1.06562 15.4425 1.40725C15.5441 1.47448 15.5542 1.61732 15.468 1.70346L14.6652 2.50635C14.5995 2.57202 14.4976 2.58307 14.4158 2.5392C14.1423 2.39271 13.8385 2.29539 13.5166 2.25942C10.5398 1.92671 7.46017 1.92671 4.48334 2.25942Z" fill="black"/>
<path d="M18.0303 3.03028C18.3232 2.73738 18.3232 2.26251 18.0303 1.96962C17.7374 1.67672 17.2625 1.67672 16.9696 1.96962L8.49997 10.4393L6.0303 7.96962C5.73741 7.67672 5.26253 7.67672 4.96964 7.96962C4.67675 8.26251 4.67675 8.73738 4.96964 9.03028L7.96964 12.0303C8.26253 12.3232 8.73741 12.3232 9.0303 12.0303L18.0303 3.03028Z" fill="black"/>
</svg>
