<svg width="126" height="32" viewBox="0 0 126 32" fill="none" xmlns="http://www.w3.org/2000/svg">
<path fill-rule="evenodd" clip-rule="evenodd" d="M15.2201 3.19349C15.7283 3.03731 16.2717 3.03731 16.7798 3.19349L20.7608 4.41705C22.8377 5.05537 24.8101 5.99386 26.6154 7.20273C28.0196 8.14298 27.354 10.3333 25.6641 10.3333H6.33587C4.64594 10.3333 3.98034 8.14299 5.38454 7.20273C7.18992 5.99386 9.16231 5.05538 11.2392 4.41705L15.2201 3.19349ZM16.1923 5.10524C16.067 5.06673 15.933 5.06673 15.8077 5.10524L11.8267 6.32879C10.2523 6.81269 8.74387 7.48608 7.33425 8.33331H24.6657C23.2561 7.48608 21.7476 6.81269 20.1732 6.32879L16.1923 5.10524Z" fill="white"/>
<path d="M5.66666 28C5.66666 27.4477 6.11438 27 6.66666 27H25.3333C25.8856 27 26.3333 27.4477 26.3333 28C26.3333 28.5523 25.8856 29 25.3333 29H6.66666C6.11438 29 5.66666 28.5523 5.66666 28Z" fill="white"/>
<path d="M8.33333 22.6666C8.33333 23.2189 8.78104 23.6666 9.33333 23.6666C9.88561 23.6666 10.3333 23.2189 10.3333 22.6666L10.3333 14.6666C10.3333 14.1144 9.88561 13.6666 9.33333 13.6666C8.78104 13.6666 8.33333 14.1144 8.33333 14.6666L8.33333 22.6666Z" fill="white"/>
<path d="M16 23.6666C15.4477 23.6666 15 23.2189 15 22.6666L15 14.6666C15 14.1144 15.4477 13.6666 16 13.6666C16.5523 13.6666 17 14.1144 17 14.6666V22.6666C17 23.2189 16.5523 23.6666 16 23.6666Z" fill="white"/>
<path d="M21.6667 22.6666C21.6667 23.2189 22.1144 23.6666 22.6667 23.6666C23.2189 23.6666 23.6667 23.2189 23.6667 22.6666V14.6666C23.6667 14.1144 23.2189 13.6666 22.6667 13.6666C22.1144 13.6666 21.6667 14.1144 21.6667 14.6666V22.6666Z" fill="white"/>
<path d="M44.714 10.267C45.716 10.267 46.598 10.444 47.36 10.798C48.128 11.152 48.722 11.653 49.142 12.301C49.562 12.943 49.772 13.687 49.772 14.533C49.772 15.397 49.553 16.159 49.115 16.819C48.683 17.473 48.071 17.983 47.279 18.349C46.493 18.709 45.584 18.889 44.552 18.889H41.366V22.867H38V10.267H44.714ZM44.318 16.225C44.738 16.225 45.11 16.15 45.434 16C45.758 15.844 46.01 15.628 46.19 15.352C46.37 15.076 46.46 14.761 46.46 14.407C46.46 14.053 46.37 13.738 46.19 13.462C46.01 13.186 45.758 12.973 45.434 12.823C45.11 12.667 44.738 12.589 44.318 12.589H41.366V16.225H44.318Z" fill="white"/>
<path d="M55.1399 13.381C56.0039 13.381 56.7659 13.531 57.4259 13.831C58.0859 14.125 58.5959 14.551 58.9559 15.109C59.3159 15.667 59.4959 16.321 59.4959 17.071V22.867H57.3359V21.49C57.0599 22.018 56.5949 22.432 55.9409 22.732C55.2929 23.026 54.5339 23.173 53.6639 23.173C52.8719 23.173 52.1789 23.056 51.5849 22.822C50.9969 22.582 50.5439 22.252 50.2259 21.832C49.9139 21.406 49.7579 20.923 49.7579 20.383C49.7579 19.825 49.9199 19.336 50.2439 18.916C50.5679 18.49 51.0239 18.16 51.6119 17.926C52.2059 17.692 52.8899 17.575 53.6639 17.575C54.2459 17.575 54.7799 17.641 55.2659 17.773C55.7579 17.905 56.1779 18.097 56.5259 18.349V17.251C56.5259 16.819 56.3909 16.48 56.1209 16.234C55.8569 15.988 55.4999 15.865 55.0499 15.865C54.6479 15.865 54.3029 15.955 54.0149 16.135C53.7329 16.315 53.5499 16.555 53.4659 16.855H50.4779C50.5679 16.165 50.8229 15.559 51.2429 15.037C51.6629 14.509 52.2089 14.101 52.8809 13.813C53.5529 13.525 54.3059 13.381 55.1399 13.381ZM54.5639 21.373C55.0919 21.373 55.5209 21.292 55.8509 21.13C56.1809 20.968 56.3459 20.761 56.3459 20.509C56.3459 20.257 56.1809 20.05 55.8509 19.888C55.5209 19.726 55.0919 19.645 54.5639 19.645C54.0479 19.645 53.6309 19.726 53.3129 19.888C52.9949 20.044 52.8359 20.251 52.8359 20.509C52.8359 20.767 52.9949 20.977 53.3129 21.139C53.6309 21.295 54.0479 21.373 54.5639 21.373Z" fill="white"/>
<path d="M67.2243 13.381C68.0343 13.381 68.7453 13.555 69.3573 13.903C69.9753 14.245 70.4523 14.728 70.7883 15.352C71.1243 15.976 71.2923 16.699 71.2923 17.521V22.867H68.2323V18.043C68.2323 17.665 68.1573 17.332 68.0073 17.044C67.8633 16.756 67.6563 16.534 67.3863 16.378C67.1223 16.216 66.8163 16.135 66.4683 16.135C66.0843 16.135 65.7453 16.219 65.4513 16.387C65.1573 16.555 64.9293 16.795 64.7673 17.107C64.6053 17.413 64.5243 17.767 64.5243 18.169V22.867H61.3563V13.687H63.5343V15.775C63.7983 15.025 64.2543 14.44 64.9023 14.02C65.5503 13.594 66.3243 13.381 67.2243 13.381Z" fill="white"/>
<path d="M77.3511 13.687H79.6011V15.865H77.4051V22.867H74.2371V15.703H72.0591V13.687H74.5431V10.771H77.3511V13.687Z" fill="white"/>
<path d="M86.5954 13.381C87.4054 13.381 88.1164 13.555 88.7284 13.903C89.3464 14.245 89.8234 14.728 90.1594 15.352C90.4954 15.976 90.6634 16.699 90.6634 17.521V22.867H87.6034V18.043C87.6034 17.665 87.5284 17.332 87.3784 17.044C87.2344 16.756 87.0274 16.534 86.7574 16.378C86.4934 16.216 86.1874 16.135 85.8394 16.135C85.4554 16.135 85.1164 16.219 84.8224 16.387C84.5284 16.555 84.3004 16.795 84.1384 17.107C83.9764 17.413 83.8954 17.767 83.8954 18.169V22.867H80.7274V8.827H83.9314V9.691C83.9314 10.717 83.8684 11.644 83.7424 12.472C83.6164 13.294 83.4214 14.206 83.1574 15.208C83.4814 14.632 83.9404 14.185 84.5344 13.867C85.1284 13.543 85.8154 13.381 86.5954 13.381Z" fill="white"/>
<path d="M102.207 18.385C102.207 18.613 102.189 18.835 102.153 19.051H94.7997C94.9317 19.621 95.2317 20.074 95.6997 20.41C96.1737 20.74 96.7527 20.905 97.4367 20.905C97.9287 20.905 98.3787 20.809 98.7867 20.617C99.1947 20.419 99.4767 20.167 99.6327 19.861H102.045C101.907 20.503 101.61 21.076 101.154 21.58C100.704 22.078 100.137 22.468 99.4527 22.75C98.7747 23.032 98.0367 23.173 97.2387 23.173C96.2187 23.173 95.3067 22.966 94.5027 22.552C93.7047 22.132 93.0807 21.55 92.6307 20.806C92.1867 20.062 91.9647 19.219 91.9647 18.277C91.9647 17.335 92.1807 16.492 92.6127 15.748C93.0507 15.004 93.6567 14.425 94.4307 14.011C95.2107 13.591 96.0927 13.381 97.0767 13.381C98.0667 13.381 98.9517 13.594 99.7317 14.02C100.512 14.446 101.118 15.04 101.55 15.802C101.988 16.558 102.207 17.419 102.207 18.385ZM97.0767 16.009C96.5487 16.009 96.0897 16.141 95.6997 16.405C95.3157 16.669 95.0457 17.035 94.8897 17.503H99.2277C99.1017 17.041 98.8467 16.678 98.4627 16.414C98.0847 16.144 97.6227 16.009 97.0767 16.009Z" fill="white"/>
<path d="M108.438 23.173C107.4 23.173 106.473 22.966 105.657 22.552C104.847 22.132 104.214 21.55 103.758 20.806C103.302 20.062 103.074 19.219 103.074 18.277C103.074 17.335 103.302 16.492 103.758 15.748C104.214 15.004 104.847 14.425 105.657 14.011C106.473 13.591 107.4 13.381 108.438 13.381C109.476 13.381 110.4 13.591 111.21 14.011C112.026 14.425 112.662 15.004 113.118 15.748C113.574 16.492 113.802 17.335 113.802 18.277C113.802 19.219 113.574 20.062 113.118 20.806C112.662 21.55 112.026 22.132 111.21 22.552C110.4 22.966 109.476 23.173 108.438 23.173ZM108.438 20.563C108.858 20.563 109.233 20.467 109.563 20.275C109.899 20.077 110.16 19.804 110.346 19.456C110.538 19.108 110.634 18.715 110.634 18.277C110.634 17.839 110.538 17.446 110.346 17.098C110.16 16.75 109.899 16.48 109.563 16.288C109.233 16.09 108.858 15.991 108.438 15.991C108.018 15.991 107.64 16.09 107.304 16.288C106.974 16.48 106.713 16.75 106.521 17.098C106.335 17.446 106.242 17.839 106.242 18.277C106.242 18.715 106.335 19.108 106.521 19.456C106.713 19.804 106.974 20.077 107.304 20.275C107.64 20.467 108.018 20.563 108.438 20.563Z" fill="white"/>
<path d="M121.066 13.381C121.876 13.381 122.587 13.555 123.199 13.903C123.817 14.245 124.294 14.728 124.63 15.352C124.966 15.976 125.134 16.699 125.134 17.521V22.867H122.074V18.043C122.074 17.665 121.999 17.332 121.849 17.044C121.705 16.756 121.498 16.534 121.228 16.378C120.964 16.216 120.658 16.135 120.31 16.135C119.926 16.135 119.587 16.219 119.293 16.387C118.999 16.555 118.771 16.795 118.609 17.107C118.447 17.413 118.366 17.767 118.366 18.169V22.867H115.198V13.687H117.376V15.775C117.64 15.025 118.096 14.44 118.744 14.02C119.392 13.594 120.166 13.381 121.066 13.381Z" fill="white"/>
</svg>
