<svg width="40" height="40" viewBox="0 0 40 40" fill="none" xmlns="http://www.w3.org/2000/svg">
<rect width="40" height="40" rx="14" fill="url(#paint0_linear_8_28)" fill-opacity="0.1" style="mix-blend-mode:multiply"/>
<path d="M21.0833 23.25C20.485 23.25 20 23.7351 20 24.3334C20 24.9317 20.485 25.4167 21.0833 25.4167C21.6817 25.4167 22.1667 24.9317 22.1667 24.3334C22.1667 23.7351 21.6817 23.25 21.0833 23.25Z" fill="url(#paint1_linear_8_28)"/>
<path d="M17.8333 25.4167C17.235 25.4167 16.75 25.9017 16.75 26.5C16.75 27.0984 17.235 27.5834 17.8333 27.5834C18.4317 27.5834 18.9167 27.0984 18.9167 26.5C18.9167 25.9017 18.4317 25.4167 17.8333 25.4167Z" fill="url(#paint2_linear_8_28)"/>
<path fill-rule="evenodd" clip-rule="evenodd" d="M22.7009 10.5209L22.6977 10.5209H17.3023L17.2991 10.5209H16.2083C15.7596 10.5209 15.3958 10.8846 15.3958 11.3334C15.3958 11.7821 15.7596 12.1459 16.2083 12.1459H16.4898V17.6568C16.4898 19.2324 16.0159 20.7715 15.1298 22.0743L11.7782 27.0015C10.927 28.2527 11.7116 29.9602 13.2154 30.1294C17.7243 30.6366 22.2758 30.6366 26.7846 30.1294C28.2884 29.9602 29.073 28.2527 28.2218 27.0015L24.8702 22.0743C23.9841 20.7715 23.5102 19.2324 23.5102 17.6568V12.1459H23.7917C24.2404 12.1459 24.6042 11.7821 24.6042 11.3334C24.6042 10.8846 24.2404 10.5209 23.7917 10.5209H22.7009ZM13.3971 28.5146C17.7852 29.0082 22.2148 29.0082 26.6029 28.5146C26.891 28.4822 27.0413 28.1551 26.8782 27.9154L23.5266 22.9882C23.288 22.6374 23.0741 22.2724 22.8859 21.8959H17.1141C16.9259 22.2724 16.712 22.6374 16.4734 22.9882L13.1218 27.9154C12.9588 28.1551 13.109 28.4822 13.3971 28.5146ZM17.7472 20.2709H22.2528C22.0103 19.4256 21.8852 18.546 21.8852 17.6568V12.1459L18.1148 12.1459V17.6568C18.1148 18.546 17.9897 19.4256 17.7472 20.2709Z" fill="url(#paint3_linear_8_28)"/>
<defs>
<linearGradient id="paint0_linear_8_28" x1="20" y1="0" x2="20" y2="40" gradientUnits="userSpaceOnUse">
<stop stop-color="white"/>
<stop offset="1" stop-color="white" stop-opacity="0.37"/>
</linearGradient>
<linearGradient id="paint1_linear_8_28" x1="11.4278" y1="20.5154" x2="28.5722" y2="20.5154" gradientUnits="userSpaceOnUse">
<stop stop-color="#FFB347"/>
<stop offset="1" stop-color="#FFCC33"/>
</linearGradient>
<linearGradient id="paint2_linear_8_28" x1="11.4278" y1="20.5154" x2="28.5722" y2="20.5154" gradientUnits="userSpaceOnUse">
<stop stop-color="#FFB347"/>
<stop offset="1" stop-color="#FFCC33"/>
</linearGradient>
<linearGradient id="paint3_linear_8_28" x1="11.4278" y1="20.5154" x2="28.5722" y2="20.5154" gradientUnits="userSpaceOnUse">
<stop stop-color="#FFB347"/>
<stop offset="1" stop-color="#FFCC33"/>
</linearGradient>
</defs>
</svg>
