<svg width="40" height="40" viewBox="0 0 40 40" fill="none" xmlns="http://www.w3.org/2000/svg">
<rect width="40" height="40" rx="14" fill="url(#paint0_linear_7_31)" fill-opacity="0.1" style="mix-blend-mode:multiply"/>
<path fill-rule="evenodd" clip-rule="evenodd" d="M17.7673 9.7216C19.4567 9.52932 21.1624 9.52932 22.8517 9.7216L24.58 9.91832C24.8275 9.94649 25.0485 10.0867 25.1794 10.2987C25.3103 10.5106 25.3367 10.771 25.2511 11.0049L22.865 17.5229H25.4167C25.6832 17.5229 25.9328 17.6536 26.0846 17.8727C26.2363 18.0918 26.271 18.3714 26.1773 18.621L25.971 19.1705C24.5397 22.9827 22.5161 26.5453 19.9748 29.7271L19.5515 30.2571C19.3361 30.5268 18.9738 30.6309 18.648 30.5168C18.3223 30.4027 18.1042 30.0952 18.1042 29.75V22.0015H16.1309C15.71 22.0015 15.3588 21.6801 15.3216 21.2608L15.1888 19.7639C14.964 17.2312 14.964 14.6835 15.1888 12.1507L15.3216 10.6538C15.3557 10.2693 15.6556 9.96196 16.0391 9.91832L17.7673 9.7216ZM22.6679 11.3362C21.1007 11.1578 19.5183 11.1578 17.9511 11.3362L16.8816 11.4579L16.8074 12.2944C16.5911 14.7315 16.5911 17.1831 16.8074 19.6203L16.8745 20.3765H18.9167C19.3654 20.3765 19.7292 20.7403 19.7292 21.189V27.3692C21.5731 24.8317 23.0887 22.0693 24.2387 19.1479H21.7024C21.437 19.1479 21.1884 19.0183 21.0364 18.8008C20.8844 18.5833 20.8482 18.3052 20.9394 18.0561L23.3701 11.4161L22.6679 11.3362Z" fill="url(#paint1_linear_7_31)"/>
<defs>
<linearGradient id="paint0_linear_7_31" x1="20" y1="0" x2="20" y2="40" gradientUnits="userSpaceOnUse">
<stop stop-color="white"/>
<stop offset="1" stop-color="white" stop-opacity="0.37"/>
</linearGradient>
<linearGradient id="paint1_linear_7_31" x1="15.0202" y1="20.07" x2="26.2292" y2="20.07" gradientUnits="userSpaceOnUse">
<stop stop-color="#1CD8D2"/>
<stop offset="1" stop-color="#93EDC7"/>
</linearGradient>
</defs>
</svg>
