<svg width="40" height="40" viewBox="0 0 40 40" fill="none" xmlns="http://www.w3.org/2000/svg">
<rect width="40" height="40" rx="14" fill="url(#paint0_linear_8_34)" fill-opacity="0.1" style="mix-blend-mode:multiply"/>
<path fill-rule="evenodd" clip-rule="evenodd" d="M29.7828 12.2328C30.1001 11.9155 30.1001 11.4011 29.7828 11.0838C29.4655 10.7665 28.9511 10.7665 28.6338 11.0838L11.3005 28.4171C10.9832 28.7344 10.9832 29.2489 11.3005 29.5662C11.6178 29.8835 12.1322 29.8835 12.4495 29.5662L14.7032 27.3125H27.0668C29.7458 27.3125 31.9175 25.1408 31.9175 22.4618C31.9175 19.7828 29.7458 17.6111 27.0668 17.6111C26.9975 17.6111 26.9285 17.6126 26.8598 17.6155C26.8189 16.9127 26.6543 16.2432 26.3872 15.6285L29.7828 12.2328ZM25.1118 16.9039L16.3282 25.6875H27.0668C28.8483 25.6875 30.2925 24.2433 30.2925 22.4618C30.2925 20.6803 28.8483 19.2361 27.0668 19.2361C26.777 19.2361 26.4972 19.2741 26.2318 19.345C25.9715 19.4145 25.6938 19.3506 25.4902 19.1742C25.2866 18.9979 25.1836 18.7321 25.2152 18.4646C25.2347 18.2998 25.2448 18.1317 25.2448 17.9609C25.2448 17.596 25.1986 17.2418 25.1118 16.9039Z" fill="url(#paint1_linear_8_34)"/>
<path d="M21.0095 12.1007C22.2087 12.1007 23.3237 12.4608 24.2523 13.0789C24.3898 13.1704 24.4036 13.364 24.2868 13.4808L23.4986 14.269C23.4076 14.36 23.2655 14.3736 23.1546 14.3083C22.5255 13.938 21.7923 13.7257 21.0095 13.7257C19.3301 13.7257 17.8773 14.7032 17.1921 16.124C17.0079 16.506 16.5609 16.682 16.1656 16.5282C15.634 16.3214 15.055 16.2075 14.4475 16.2075C11.8296 16.2075 9.70746 18.3296 9.70746 20.9475C9.70746 22.731 10.6925 24.2844 12.1482 25.0935C12.3137 25.1855 12.355 25.4126 12.2211 25.5465L11.4378 26.3298C11.3514 26.4162 11.2175 26.4346 11.1135 26.3705C9.29481 25.25 8.08246 23.2403 8.08246 20.9475C8.08246 17.4322 10.9322 14.5825 14.4475 14.5825C15.0104 14.5825 15.5572 14.6557 16.0783 14.7935C17.1202 13.1747 18.9388 12.1007 21.0095 12.1007Z" fill="url(#paint2_linear_8_34)"/>
<defs>
<linearGradient id="paint0_linear_8_34" x1="20" y1="0" x2="20" y2="40" gradientUnits="userSpaceOnUse">
<stop stop-color="white"/>
<stop offset="1" stop-color="white" stop-opacity="0.37"/>
</linearGradient>
<linearGradient id="paint1_linear_8_34" x1="8.08246" y1="20.325" x2="31.9175" y2="20.325" gradientUnits="userSpaceOnUse">
<stop stop-color="#F857A6"/>
<stop offset="1" stop-color="#FF5858"/>
</linearGradient>
<linearGradient id="paint2_linear_8_34" x1="8.08246" y1="20.325" x2="31.9175" y2="20.325" gradientUnits="userSpaceOnUse">
<stop stop-color="#F857A6"/>
<stop offset="1" stop-color="#FF5858"/>
</linearGradient>
</defs>
</svg>
